<svg width="838" height="811" viewBox="0 0 838 811" fill="none" xmlns="http://www.w3.org/2000/svg">
<ellipse cx="419" cy="405.5" rx="419" ry="405.5" fill="white"/>
<rect width="76.3683" height="221.445" rx="10" transform="matrix(0.80681 0.57857 -0.568475 0.831463 442.371 293.907)" fill="#FFEC34"/>
<path d="M536.401 223.529L512.361 324.39C511.864 326.472 509.485 327.401 507.779 326.178L452.004 286.182C450.299 284.959 450.338 282.351 452.078 281.161L536.401 223.529Z" fill="#FFEC34"/>
<path d="M296.938 573.773L366.036 533.518C367.934 532.412 368.071 529.659 366.291 528.383L314.865 491.504C313.085 490.228 310.606 491.301 310.24 493.506L296.938 573.773Z" fill="#FFEC34"/>
<path d="M434.266 289.316C435.475 287.547 436.106 285.433 436.066 283.279L435.61 258.571L303.01 452.515L307.183 466.665C307.897 469.085 311.017 469.583 312.438 467.505L434.266 289.316Z" fill="#FFF189"/>
<path d="M534.024 224.264L443.651 250.922L444.345 272.972C444.411 275.055 446.215 276.098 447.965 275.065L534.024 224.264Z" fill="#FFF189"/>
<path d="M294.913 569.882L305.337 493.299C306.143 487.374 305.859 481.604 304.499 476.306L299.653 457.425L294.913 569.882Z" fill="#FFF189"/>
<path d="M509.983 343.54C511.172 341.801 512.859 340.486 514.808 339.778L537.409 331.571L404.809 525.515L390.77 526.474C388.292 526.643 386.741 523.797 388.17 521.706L509.983 343.54Z" fill="#FFC533"/>
<path d="M536.337 225.921L541.719 321.247L521.527 328.272C519.593 328.945 518.037 327.587 518.404 325.547L536.337 225.921Z" fill="#FFC533"/>
<path d="M300.956 574.215L367.032 537.549C372.149 534.709 377.484 532.963 382.744 532.406L401.452 530.424L300.956 574.215Z" fill="#FFC533"/>
<path fill-rule="evenodd" clip-rule="evenodd" d="M362.195 274.914C315.077 239.594 278.055 222.966 266.305 235C247.052 254.718 302.934 343.917 391.12 434.232C479.307 524.548 566.404 581.778 585.657 562.061C599.511 547.873 574.463 497.711 526.47 437.044L531.845 432.353C560.393 466.753 581.094 496.916 592.856 520.916C598.697 532.835 602.772 544.105 604.098 554.142C605.4 563.993 604.348 575.604 596.005 584.148C589.908 590.392 582.043 592.202 575.265 592.221C568.54 592.239 561.396 590.55 554.364 588.062C540.229 583.06 523.26 573.63 504.778 561.161C467.606 536.084 421.643 496.888 375.447 449.577C329.252 402.267 290.98 355.194 266.493 317.125C254.319 298.196 245.11 280.818 240.227 266.342C237.797 259.14 236.147 251.824 236.166 244.937C236.184 237.995 237.951 229.94 244.048 223.696C249.657 217.951 256.853 213.799 265.91 212.853C274.477 211.958 283.346 214.079 292.444 218.005C310.347 225.731 333.782 242.551 366.026 270.249L362.195 274.914Z" fill="#012985"/>
</svg>
